<?xml version="1.0" standalone="no"?><!DOCTYPE svg PUBLIC "-//W3C//DTD SVG 1.1//EN" "http://www.w3.org/Graphics/SVG/1.1/DTD/svg11.dtd"><svg t="1773212157229" class="icon" viewBox="0 0 1024 1024" version="1.1" xmlns="http://www.w3.org/2000/svg" p-id="7192" xmlns:xlink="http://www.w3.org/1999/xlink" width="256" height="256"><path d="M689.152 576m56.568542 56.568542l90.509668 90.509668q56.568542 56.568542 0 113.137085l0 0q-56.568542 56.568542-113.137085 0l-90.509667-90.509668q-56.568542-56.568542 0-113.137085l0 0q56.568542-56.568542 113.137084 0Z" fill="#99AFFF" p-id="7193"></path><path d="M496 464m-336 0a336 336 0 1 0 672 0 336 336 0 1 0-672 0Z" fill="#FFFFFF" fill-opacity=".65" p-id="7194"></path><path d="M803.2 464a307.2 307.2 0 0 0-307.2-307.2 307.2 307.2 0 0 0-307.2 307.2 307.2 307.2 0 0 0 307.2 307.2 307.2 307.2 0 0 0 307.2-307.2z m57.6 0c0 201.472-163.328 364.8-364.8 364.8S131.2 665.472 131.2 464 294.528 99.2 496 99.2s364.8 163.328 364.8 364.8z" fill="#222222" p-id="7195"></path><path d="M425.248 365.856c26.4-62.624 115.168-62.624 141.536 0l83.776 198.944a28.8 28.8 0 0 1-51.808 25.024l-1.28-2.656-32.96-78.368h-136.96l-32.992 78.4a28.8 28.8 0 0 1-53.088-22.4l83.776-198.944z m88.448 22.4a19.2 19.2 0 0 0-35.36 0l-26.496 62.912h88.352l-26.496-62.944z" fill="#222222" p-id="7196"></path></svg>