<svg version="1.0" xmlns="http://www.w3.org/2000/svg" width="800.000000" height="800.000000" viewBox="0 0 800.000000 800.000000" preserveAspectRatio="xMidYMid meet">
  <metadata>
    <rdf:RDF xmlns:rdf="http://www.w3.org/1999/02/22-rdf-syntax-ns#" xmlns:rdfs="http://www.w3.org/2000/01/rdf-schema#" xmlns:dc="http://purl.org/dc/elements/1.1/">
      <rdf:Description dc:format="image/svg+xml" dc:Label="1" dc:ContentProducer="001191330110MACRLGPT8B00000" dc:ProduceID="453938945" dc:ReservedCode1="RFnlwzxiP1G9eR/hMwIWavJr/KsvU6mK2Nz9k/g1+fg=" dc:ContentPropagator="001191330110MACRLGPT8B00000" dc:PropagateID="453938945" dc:ReservedCode2="RFnlwzxiP1G9eR/hMwIWavJr/KsvU6mK2Nz9k/g1+fg="/>
    </rdf:RDF>
  </metadata>
  <g transform="translate(0.000000,800.000000) scale(0.100000,-0.100000)" fill="#000000" stroke="none">
    <path d="M4035 6478 c-3 -7 -52 -150 -109 -318 -167 -492 -224 -638 -364 -935 -91 -193 -99 -220 -67 -220 14 0 31 21 60 75 34 60 49 77 81 91 21 10 40 16 42 15 12 -12 -259 -762 -313 -866 -37 -71 -3 -89 59 -32 48 44 86 68 86 53 0 -5 -63 -198 -140 -429 -77 -231 -140 -427 -140 -436 0 -10 8 -16 23 -16 20 0 35 39 195 518 95 284 173 520 172 525 -1 17 -23 5 -58 -32 -37 -38 -112 -98 -112 -88 0 2 12 31 26 63 34 75 147 386 209 572 43 130 49 142 64 129 25 -22 78 -47 99 -47 32 0 34 28 4 47 -15 9 -44 30 -65 47 -35 26 -38 32 -32 62 7 42 -2 43 -70 10 -27 -14 -51 -23 -52 -22 -2 2 15 41 36 87 63 134 175 421 252 646 94 277 127 369 129 363 1 -4 110 -534 126 -615 l6 -30 -26 25 c-14 14 -41 54 -61 90 l-35 65 1 -125 c0 -69 4 -156 9 -195 5 -38 14 -216 20 -395 6 -179 15 -388 20 -465 5 -76 8 -141 6 -143 -3 -2 -14 2 -26 8 -12 6 -24 9 -27 7 -2 -3 7 -59 21 -124 14 -65 39 -190 56 -278 17 -88 49 -229 72 -312 23 -84 38 -156 34 -160 -8 -8 -91 35 -143 73 -40 30 -47 20 -22 -34 11 -23 17 -47 13 -53 -4 -8 -34 -10 -84 -7 l-77 5 64 -94 c69 -102 123 -204 179 -340 65 -156 172 -442 167 -447 -13 -12 -128 41 -219 101 -29 19 -57 33 -63 32 -6 -3 -2 -22 9 -48 11 -24 20 -51 20 -61 0 -25 -67 -34 -120 -16 -22 7 -40 10 -40 5 0 -5 15 -33 34 -62 18 -28 55 -88 82 -132 26 -44 74 -106 105 -137 l57 -58 -31 0 -32 -1 43 -39 c42 -38 98 -62 177 -75 l40 -7 -40 -33 c-22 -19 -37 -36 -34 -39 3 -3 54 -10 115 -16 172 -16 299 -59 268 -90 -49 -49 -569 -109 -941 -110 l-172 0 -16 30 c-8 16 -15 31 -15 33 0 3 36 8 80 11 44 4 80 11 80 15 0 4 -26 12 -57 19 -102 21 -132 45 -182 145 -39 76 -43 90 -32 110 10 19 2 51 -58 227 -38 113 -79 232 -91 265 -64 179 -163 566 -148 581 3 2 35 -74 73 -169 84 -211 141 -337 153 -337 5 0 15 6 21 13 8 10 -2 42 -40 130 l-51 117 26 78 c44 136 146 523 140 533 -3 5 -14 9 -24 9 -21 0 -24 -8 -70 -185 -32 -123 -87 -318 -96 -345 -15 -41 -188 497 -227 705 -9 44 -14 81 -13 82 1 1 19 -41 41 -95 73 -185 92 -222 115 -222 28 0 26 19 -16 113 -151 344 -347 1012 -454 1556 -16 79 -34 147 -41 152 -23 14 -38 -3 -54 -59 -86 -298 -244 -731 -355 -974 -38 -83 -67 -155 -64 -160 3 -4 14 -8 24 -8 15 0 28 17 49 64 31 68 33 70 72 79 25 6 25 6 -43 -195 -37 -111 -97 -275 -133 -364 -36 -90 -65 -167 -65 -173 0 -21 30 -11 76 24 26 20 48 34 50 32 5 -5 -185 -568 -226 -671 -32 -81 -33 -106 -5 -106 17 0 33 32 93 195 48 131 232 689 232 704 0 22 -25 10 -67 -31 -23 -23 -45 -39 -48 -36 -3 2 21 74 54 159 32 85 78 213 100 284 23 72 43 136 46 143 4 10 11 9 31 -7 31 -24 84 -28 84 -7 0 7 -17 26 -37 41 -53 39 -63 55 -57 82 8 30 -12 30 -60 2 -20 -12 -36 -19 -36 -16 0 2 15 37 34 78 52 112 111 269 202 539 45 135 85 238 88 230 3 -8 17 -71 31 -140 14 -69 37 -174 51 -234 14 -60 23 -110 21 -112 -7 -7 -57 52 -77 91 l-21 40 5 -125 c10 -295 36 -848 41 -878 8 -42 0 -55 -26 -42 -24 13 -24 18 5 -131 14 -68 34 -173 46 -234 11 -60 34 -158 50 -217 17 -59 30 -114 30 -123 0 -18 -19 -12 -87 31 -28 18 -53 30 -56 28 -3 -3 0 -21 6 -40 14 -44 0 -56 -60 -52 -24 2 -43 0 -43 -4 0 -4 20 -35 44 -70 53 -77 112 -193 167 -330 59 -146 110 -290 106 -294 -6 -6 -109 41 -166 76 -29 18 -55 30 -58 27 -3 -4 2 -24 10 -46 14 -34 14 -41 2 -51 -14 -12 -56 -10 -102 5 -19 6 -14 -8 39 -96 71 -121 120 -185 148 -194 29 -9 25 -25 -6 -25 -24 0 -25 -2 -13 -17 21 -24 109 -63 147 -63 39 0 40 -9 5 -41 l-28 -24 40 -7 c22 -4 79 -11 127 -17 86 -10 148 -32 148 -52 0 -17 -80 -46 -155 -58 -191 -29 -398 -41 -804 -47 -420 -6 -434 -5 -426 12 34 84 206 637 305 979 58 200 119 447 113 461 -9 25 -42 16 -49 -13 -70 -301 -199 -745 -382 -1310 -34 -104 -46 -156 -40 -167 8 -14 56 -16 446 -16 240 0 572 5 737 10 165 6 378 11 472 12 116 2 174 6 177 14 4 11 718 24 1661 30 259 1 574 6 700 11 l230 8 -1 35 c-1 19 -31 106 -67 192 -36 87 -63 165 -61 175 3 10 -25 108 -61 218 -82 251 -120 382 -135 465 -6 36 -13 74 -15 84 -10 47 19 -14 90 -191 62 -156 81 -193 96 -193 11 0 19 7 19 16 0 8 -33 99 -74 202 -41 103 -90 234 -109 292 -40 121 -100 355 -95 371 2 6 25 -41 51 -105 50 -119 70 -147 89 -128 7 7 -11 65 -65 199 -130 327 -197 560 -308 1068 -28 127 -54 234 -59 239 -20 20 -38 -7 -64 -95 -62 -207 -197 -562 -290 -763 -51 -108 -55 -126 -28 -126 10 0 28 20 44 49 15 27 36 51 48 54 14 4 20 1 17 -6 -2 -7 -30 -90 -62 -186 -31 -95 -76 -222 -99 -280 -23 -59 -41 -112 -38 -119 6 -20 22 -14 56 23 37 39 64 48 46 15 -6 -10 -40 -110 -76 -222 -37 -112 -80 -236 -96 -277 -21 -53 -26 -77 -18 -85 30 -30 64 44 156 339 31 99 69 217 85 263 16 46 29 88 29 93 0 16 -21 10 -52 -16 -41 -35 -50 -31 -31 13 9 20 46 126 83 234 64 189 67 197 86 183 22 -16 74 -20 74 -5 0 5 -18 21 -40 35 -32 20 -40 31 -40 55 0 33 -14 38 -44 15 -34 -26 -37 -17 -13 33 37 73 129 310 188 484 30 87 56 158 59 158 4 0 66 -280 78 -355 l5 -30 -27 24 c-14 13 -28 32 -32 43 -12 38 -22 16 -18 -39 15 -229 24 -406 30 -585 5 -178 4 -208 -8 -208 -12 0 -9 -33 18 -192 18 -106 44 -233 57 -281 13 -48 21 -89 18 -92 -4 -2 -31 10 -61 26 -29 16 -55 27 -57 25 -2 -2 2 -16 9 -30 15 -35 -2 -49 -50 -41 -27 5 -32 3 -26 -7 4 -7 27 -42 50 -78 22 -36 57 -99 76 -140 47 -100 121 -310 113 -318 -3 -4 -41 11 -83 33 -42 22 -80 42 -85 44 -4 1 -1 -13 7 -33 18 -42 11 -49 -47 -44 -23 1 -41 -1 -40 -5 7 -31 129 -210 151 -222 l27 -14 -27 -1 c-63 -1 12 -53 94 -66 l41 -7 -27 -22 c-16 -12 -24 -25 -20 -28 5 -2 44 -8 88 -12 92 -8 151 -26 151 -46 0 -46 -622 -108 -663 -67 -22 22 -13 28 43 28 65 0 73 15 13 24 -77 12 -93 30 -147 156 -27 63 -71 164 -97 225 l-47 110 21 100 c12 55 44 185 72 289 45 169 49 192 35 205 -10 11 -18 12 -25 5 -6 -6 -27 -78 -46 -160 -20 -82 -46 -180 -58 -218 l-21 -70 -89 270 c-152 461 -184 577 -215 777 -12 75 -9 112 5 71 14 -40 194 -491 214 -536 14 -33 27 -48 40 -48 10 0 20 5 22 12 3 7 -17 62 -42 123 -81 190 -179 450 -221 583 -53 169 -146 533 -154 602 -5 49 4 30 84 -160 50 -118 91 -216 91 -217 0 -8 40 -2 45 7 4 6 -19 70 -50 143 -192 449 -423 1236 -555 1887 -22 113 -45 215 -50 228 -10 24 -38 30 -45 10z m166 -1594 c9 -5 8 -9 -6 -14 -16 -6 -14 -11 19 -47 24 -28 32 -43 24 -46 -19 -7 13 -30 97 -72 l70 -35 -111 0 c-90 0 -114 3 -125 16 -9 11 -14 57 -17 143 l-3 126 19 -31 c11 -18 26 -35 33 -40z m-1413 -587 c12 -21 18 -35 12 -32 -17 10 -12 -2 21 -51 24 -35 47 -53 93 -75 l61 -29 -90 0 c-49 0 -96 4 -104 9 -10 7 -15 39 -19 118 -2 59 -2 106 0 103 2 -3 14 -22 26 -43z m2767 -416 c3 -16 15 -37 25 -46 10 -9 16 -23 14 -30 -6 -13 52 -56 99 -75 13 -5 -10 -6 -58 -3 -44 3 -84 9 -89 13 -10 10 -16 170 -5 170 4 0 10 -13 14 -29z m-737 -966 c44 -143 88 -287 98 -320 9 -32 48 -129 86 -215 67 -148 138 -323 138 -339 0 -5 -24 -6 -52 -4 -77 6 -79 8 -67 39 14 39 0 97 -65 261 -50 128 -104 293 -139 423 -9 30 -27 93 -40 140 -27 91 -67 277 -67 307 1 38 29 -37 108 -292z m-355 15 c-7 -25 -29 -44 -43 -35 -16 10 -12 46 7 67 16 18 18 18 29 3 7 -9 10 -25 7 -35z m-1425 -58 c4 -27 -15 -62 -33 -62 -10 0 -15 11 -15 33 0 53 41 78 48 29z m1492 -8 c-17 -44 -40 -66 -56 -53 -10 8 -5 19 24 48 20 21 38 37 40 36 1 -1 -2 -15 -8 -31z m-1435 -113 c-17 -34 -16 -34 -39 -25 -14 5 -11 13 16 43 36 40 48 30 23 -18z m2988 -536 c36 -88 63 -163 61 -167 -3 -5 -20 -8 -39 -8 l-33 0 -5 58 c-2 32 -20 101 -41 157 -42 110 -126 430 -126 473 1 15 27 -58 59 -163 32 -104 88 -262 124 -350z m-2707 190 c15 -38 49 -117 77 -175 27 -58 59 -135 72 -172 l23 -67 -29 -6 c-53 -12 -67 -1 -61 53 3 37 -2 62 -23 112 -36 86 -62 159 -85 247 -36 132 -22 136 26 8z"/>
    <path d="M5271 6117 c-18 -102 -14 -276 9 -386 28 -141 101 -326 114 -291 43 123 32 333 -28 542 -25 83 -70 198 -79 198 -3 0 -10 -28 -16 -63z"/>
    <path d="M4986 5800 c12 -66 66 -215 102 -284 27 -52 47 -76 80 -97 25 -16 49 -26 55 -22 13 8 2 95 -18 134 -20 37 -152 219 -195 269 l-31 35 7 -35z"/>
    <path d="M5894 5796 c-59 -33 -147 -100 -236 -178 -62 -55 -84 -82 -112 -141 -29 -58 -33 -73 -20 -75 51 -12 165 67 259 181 73 87 162 223 153 232 -2 2 -22 -6 -44 -19z"/>
    <path d="M3638 4351 c-58 -56 -44 -111 27 -111 36 0 55 21 55 57 -1 17 -1 17 -14 1 -22 -30 -29 -20 -24 37 3 30 2 54 -1 54 -3 -1 -23 -18 -43 -38z"/>
    <path d="M2362 3845 c-52 -58 -41 -95 29 -95 22 0 32 6 39 26 13 34 13 41 -2 26 -23 -23 -31 -12 -25 33 4 25 3 45 -1 45 -4 0 -22 -16 -40 -35z"/>
    <path d="M5212 3521 c-37 -34 -41 -56 -11 -71 29 -16 63 -8 68 15 3 17 2 18 -14 5 -17 -14 -18 -12 -11 33 4 26 6 47 4 47 -2 0 -18 -13 -36 -29z"/>
    <path d="M3486 3459 c-22 -105 -32 -146 -59 -227 l-30 -94 21 -20 c17 -17 37 -21 131 -26 61 -2 111 -2 111 1 0 3 -20 17 -43 31 -38 22 -97 83 -97 101 0 3 24 -10 52 -30 29 -19 56 -35 60 -35 5 0 -5 24 -21 53 -16 28 -46 97 -66 152 -41 112 -52 129 -59 94z"/>
    <path d="M2246 3128 c-18 -61 -50 -201 -53 -235 -4 -34 -2 -42 14 -47 17 -5 106 -9 148 -7 l20 2 -20 11 c-32 17 -65 50 -65 65 0 9 9 7 33 -7 47 -29 51 -25 23 23 -13 23 -36 77 -51 120 -28 78 -42 100 -49 75z"/>
    <path d="M5125 2938 c-17 -53 -45 -173 -45 -193 0 -33 27 -45 102 -45 l63 0 -30 18 c-31 19 -63 52 -51 52 4 0 21 -7 38 -16 l31 -16 -20 29 c-11 15 -32 63 -48 106 -28 79 -33 86 -40 65z"/>
    <path d="M2052 2469 c-5 -13 -13 -40 -17 -59 -4 -19 -32 -104 -62 -187 -30 -84 -53 -159 -50 -167 3 -7 22 -17 42 -20 49 -10 385 4 385 15 0 5 -9 9 -20 9 -67 0 -194 82 -252 163 l-23 31 38 -23 c44 -27 52 -24 36 15 -6 16 -21 76 -34 132 -13 57 -26 106 -29 109 -3 3 -9 -5 -14 -18z"/>
  </g>
</svg>