<?xml version="1.0" standalone="no"?><!DOCTYPE svg PUBLIC "-//W3C//DTD SVG 1.1//EN" "http://www.w3.org/Graphics/SVG/1.1/DTD/svg11.dtd"><svg t="1776823691562" class="icon" viewBox="0 0 1024 1024" version="1.1" xmlns="http://www.w3.org/2000/svg" p-id="10723" xmlns:xlink="http://www.w3.org/1999/xlink" width="256" height="256"><path d="M490.900799 386.954688c-21.73204-42.860933-43.717641-85.590583-65.830774-128.320234A4946.761832 4946.761832 0 0 0 338.398429 98.333935c-4.448583-7.732882-9.404289-15.203951-13.344248-23.068115a59.001111 59.001111 0 0 1-5.083238-20.840823c-0.663912-26.222633 17.299211-49.031935 42.319301-53.73933C382.645699-2.58813 402.949391 6.879174 414.013834 24.801037c8.514573 14.155946 16.648052 28.443173 24.909063 42.860932 38.887966 70.254601 76.124029 141.557956 112.724688 213.254408 10.294006-21.233919 21.604509-42.073991 33.93151-62.128622 45.097227-74.722688 106.61295-137.449206 179.571959-183.10757a525.16533 525.16533 0 0 1 47.65685-25.690003A87.928903 87.928903 0 0 1 842.927735 0.029257c11.034436-0.37059 21.910583 2.788429 31.135579 9.044202 21.430466 15.416252 28.260879 44.947941 15.885867 68.681467-4.740404 8.424551-11.530307 15.427505-19.698295 20.316445-8.13348 4.193521-16.521271 7.995446-24.781532 11.927904-28.303639 14.621059-54.979382 32.376381-79.556115 52.952389-78.157024 66.584707-128.228712 159.253264-160.127226 257.687723l-0.635404 1.704415a978.469167 978.469167 0 0 0-24.909064 93.716561 1145.756887 1145.756887 0 0 0-12.708093 69.337128 1527.195482 1527.195482 0 0 0-16.775583 207.618286c-1.016497 55.575027 0.508624 111.280587 3.939959 166.723581 4.574613 71.041542-103.969307 3.428334-105.608456-99.352683-0.889717-53.476767 0.254312-106.954284 3.812428-160.301268l-4.447833-10.223489c-16.457506-34.692194-40.942716-64.672492-71.295104-87.294248a186.679189 186.679189 0 0 0-20.841573-13.237722c-5.337549-3.014984-10.802629-5.50559-15.631554-9.044202-8.408047-6.471825-14.703579-15.433507-18.046393-25.690003-4.918197-15.558037-2.54837-32.589433 6.412561-46.093469 8.960931-13.503287 23.496469-21.947342 39.338075-22.850562h3.431335c14.233965 0.524378 25.926311 7.339787 38.253311 14.418509 18.720807 11.020182 36.306587 23.975836 52.485776 38.665912l8.261011 7.6016a1148.904653 1148.904653 0 0 1 31.38989-136.708026l-11.310503-22.675019z" fill="#13227a" p-id="10724"></path><path d="M127.906193 959.999672a384.093492 64.000328 0 1 0 768.186983 0 384.093492 64.000328 0 1 0-768.186983 0Z" fill="#13227a" p-id="10725"></path></svg>